<svg width="309" height="226" viewBox="0 0 309 226" fill="none" xmlns="http://www.w3.org/2000/svg">
<path d="M309 77.866L192.5 77.9999H190V226L309 226V77.866Z" fill="#B6B6B6"/>
<path d="M309 78H190L206 62H293L309 78Z" fill="#DADADA"/>
<path d="M119 54.866L2.5 54.9999H0V203L119 203V54.866Z" fill="#B6B6B6"/>
<path d="M119 55H0L16 39H103L119 55Z" fill="#DADADA"/>
<path d="M211 15.866L94.5 15.9999H92V164L211 164V15.866Z" fill="url(#paint0_linear_197_19)"/>
<path d="M211 16H92L108 0H195L211 16Z" fill="#D0D0D0"/>
<path d="M161.779 53.3636V113H149.17V65.3317H148.821L135.164 73.8928V62.7109L149.928 53.3636H161.779Z" fill="white"/>
<path d="M259.877 162.815C255.529 162.815 251.656 162.068 248.259 160.573C244.881 159.059 242.211 156.982 240.251 154.342C238.309 151.682 237.31 148.615 237.251 145.14H249.947C250.025 146.596 250.501 147.877 251.374 148.984C252.267 150.071 253.451 150.915 254.927 151.517C256.402 152.119 258.062 152.42 259.906 152.42C261.828 152.42 263.527 152.08 265.002 151.401C266.478 150.721 267.633 149.78 268.467 148.576C269.302 147.372 269.719 145.984 269.719 144.412C269.719 142.82 269.273 141.413 268.38 140.19C267.506 138.947 266.245 137.977 264.594 137.278C262.964 136.579 261.022 136.229 258.771 136.229H253.209V126.969H258.771C260.673 126.969 262.352 126.639 263.808 125.979C265.284 125.319 266.429 124.407 267.244 123.242C268.06 122.058 268.467 120.68 268.467 119.107C268.467 117.612 268.108 116.302 267.39 115.176C266.691 114.031 265.701 113.138 264.42 112.497C263.158 111.857 261.683 111.536 259.994 111.536C258.285 111.536 256.723 111.847 255.305 112.468C253.888 113.07 252.753 113.934 251.898 115.06C251.044 116.186 250.588 117.506 250.53 119.02H238.445C238.504 115.584 239.484 112.555 241.386 109.935C243.289 107.314 245.851 105.266 249.074 103.79C252.316 102.296 255.975 101.548 260.052 101.548C264.167 101.548 267.768 102.296 270.855 103.79C273.942 105.285 276.339 107.304 278.048 109.847C279.775 112.371 280.63 115.205 280.61 118.35C280.63 121.689 279.591 124.475 277.494 126.707C275.417 128.94 272.709 130.357 269.37 130.959V131.425C273.757 131.988 277.096 133.512 279.387 135.996C281.697 138.462 282.843 141.549 282.823 145.256C282.843 148.654 281.862 151.672 279.882 154.312C277.921 156.953 275.213 159.03 271.758 160.544C268.302 162.058 264.342 162.815 259.877 162.815Z" fill="white"/>
<path d="M32.8338 142V132.915L54.0618 113.259C55.8672 111.512 57.3814 109.94 58.6044 108.542C59.8468 107.144 60.7884 105.776 61.429 104.436C62.0696 103.077 62.3899 101.612 62.3899 100.039C62.3899 98.2919 61.992 96.7874 61.196 95.5256C60.4001 94.2443 59.313 93.264 57.9347 92.5845C56.5563 91.8857 54.9936 91.5362 53.2464 91.5362C51.4216 91.5362 49.8298 91.9051 48.4709 92.6428C47.112 93.3804 46.0637 94.4384 45.326 95.8168C44.5883 97.1951 44.2195 98.8355 44.2195 100.738H32.2514C32.2514 96.8359 33.1347 93.4484 34.9013 90.5753C36.6679 87.7022 39.143 85.4794 42.3267 83.907C45.5104 82.3345 49.1795 81.5483 53.3338 81.5483C57.6046 81.5483 61.3222 82.3054 64.4865 83.8196C67.6702 85.3144 70.1454 87.3916 71.9119 90.0511C73.6785 92.7107 74.5618 95.7585 74.5618 99.1946C74.5618 101.446 74.1153 103.669 73.2223 105.863C72.3487 108.057 70.786 110.493 68.5341 113.172C66.2822 115.831 63.1082 119.025 59.0121 122.752L50.3054 131.284V131.692H75.348V142H32.8338Z" fill="white"/>
<defs>
<linearGradient id="paint0_linear_197_19" x1="151.5" y1="109" x2="151.5" y2="226.5" gradientUnits="userSpaceOnUse">
<stop stop-color="#DADADA"/>
<stop offset="1" stop-color="#747474"/>
</linearGradient>
</defs>
</svg>
